<svg xmlns="http://www.w3.org/2000/svg" version="1.1" xmlns:xlink="http://www.w3.org/1999/xlink" width="1000" height="1000"><g clip-path="url(#SvgjsClipPath1485)"><rect width="1000" height="1000" fill="#3a3a3a"></rect><g transform="matrix(30.76923076923077,0,0,30.76923076923077,146.15384615384613,100)"><svg xmlns="http://www.w3.org/2000/svg" width="23" height="26" viewBox="0 0 23 26" fill="none"><path d="M1.53369 25.2V1.04904e-05H12.4057C15.2137 1.04904e-05 17.3857 0.56401 18.9217 1.69201C20.4817 2.82001 21.2617 4.41601 21.2617 6.48001C21.2617 7.84801 20.9377 9.00001 20.2897 9.93601C19.6657 10.872 18.8017 11.58 17.6977 12.06C16.6177 12.54 15.4297 12.78 14.1337 12.78L14.7457 11.916C16.3537 11.916 17.7337 12.168 18.8857 12.672C20.0617 13.152 20.9737 13.884 21.6217 14.868C22.2697 15.828 22.5937 17.028 22.5937 18.468C22.5937 20.604 21.8017 22.26 20.2177 23.436C18.6577 24.612 16.2937 25.2 13.1257 25.2H1.53369ZM4.19769 23.004H13.0897C15.2977 23.004 16.9897 22.632 18.1657 21.888C19.3417 21.12 19.9297 19.908 19.9297 18.252C19.9297 16.62 19.3417 15.432 18.1657 14.688C16.9897 13.92 15.2977 13.536 13.0897 13.536H3.90969V11.34H12.2257C14.2417 11.34 15.8017 10.956 16.9057 10.188C18.0337 9.42001 18.5977 8.28001 18.5977 6.76801C18.5977 5.23201 18.0337 4.09201 16.9057 3.34801C15.8017 2.58001 14.2417 2.19601 12.2257 2.19601H4.19769V23.004Z" fill="#FF5A9F"></path><path d="M8.75513 8.80801C8.75513 9.32001 9.02179 9.69335 9.55513 9.92801C10.0885 10.1413 11.0591 10.3227 12.4671 10.472C14.0885 10.6427 15.4111 11.1333 16.4351 11.944C17.4591 12.7333 17.9711 13.8427 17.9711 15.272V15.464C17.9711 17.0427 17.3951 18.3013 16.2431 19.24C15.0911 20.1787 13.4698 20.648 11.3791 20.648C10.1418 20.648 9.08579 20.488 8.21113 20.168C7.33646 19.848 6.61113 19.4533 6.03513 18.984C5.45913 18.4933 5.01113 17.96 4.69113 17.384C4.39246 16.7867 4.18979 16.2107 4.08313 15.656L7.79513 14.44C7.96579 15.1227 8.31779 15.72 8.85113 16.232C9.40579 16.744 10.2485 17 11.3791 17C12.3818 17 13.0645 16.8507 13.4271 16.552C13.8111 16.232 14.0031 15.8907 14.0031 15.528C14.0031 15.3147 13.9498 15.1227 13.8431 14.952C13.7578 14.76 13.5871 14.5893 13.3311 14.44C13.0751 14.2693 12.7231 14.1307 12.2751 14.024C11.8485 13.9173 11.3045 13.832 10.6431 13.768C8.85113 13.6187 7.42179 13.16 6.35513 12.392C5.30979 11.6027 4.78713 10.4507 4.78713 8.93601V8.74401C4.78713 7.95468 4.95779 7.26135 5.29913 6.66401C5.64046 6.06668 6.08846 5.56534 6.64313 5.16001C7.19779 4.73335 7.83779 4.41335 8.56313 4.20001C9.28846 3.98668 10.0351 3.88001 10.8031 3.88001C11.8058 3.88001 12.6698 4.00801 13.3951 4.26401C14.1418 4.49868 14.7711 4.81868 15.2831 5.22401C15.7951 5.60801 16.2111 6.04534 16.5311 6.53601C16.8511 7.00534 17.0965 7.46401 17.2671 7.91201L13.6191 9.38401C13.4271 8.80801 13.0965 8.36001 12.6271 8.04001C12.1578 7.69868 11.5498 7.52801 10.8031 7.52801C10.1205 7.52801 9.60846 7.65601 9.26713 7.91201C8.92579 8.14668 8.75513 8.44534 8.75513 8.80801Z" fill="#EAB95A"></path></svg></g></g><defs><clipPath id="SvgjsClipPath1485"><rect width="1000" height="1000" x="0" y="0" rx="500" ry="500"></rect></clipPath></defs></svg>